<svg xmlns="http://www.w3.org/2000/svg" xmlns:xlink="http://www.w3.org/1999/xlink" contentStyleType="text/css" data-diagram-type="DESCRIPTION" height="246px" preserveAspectRatio="none" style="width:736px;height:246px;background:#000000;" version="1.1" viewBox="0 0 736 246" width="736px" zoomAndPan="magnify"><defs/><g><!--entity Audio--><g class="entity" data-entity="Audio" data-source-line="8" data-uid="ent0002" id="entity_Audio"><path d="M25.3035,105.0572 C29.5708,98.3301 34.9506,98.9142 39.2424,105.0306 C41.9807,99.6656 46.7012,97.368 51.0991,103.2868 C56.2469,96.4528 60.3992,97.6653 64.6827,104.1672 C69.5199,98.3814 75.5475,99.7496 77.9714,106.6877 C87.0372,109.5672 87.3561,116.0344 81.7305,122.4235 C87.4091,127.4663 85.6218,133.2312 78.8196,135.4946 C75.9815,142.7103 71.7017,143.592 66.0724,138.3509 C62.1899,145.2536 57.8752,148.0006 51.5092,140.9414 C46.6218,146.3604 41.5895,146.0655 38.8603,138.7908 C33.4816,145.1645 27.1473,143.9755 25.1056,135.665 C16.8977,133.0224 16.5245,126.2363 23.0897,121.4924 C16,115.2114 17.3865,109.3168 25.3035,105.0572" fill="#B388F5" style="stroke:#181818;stroke-width:0.5;"/><text fill="#000000" font-family="sans-serif" font-size="14" lengthAdjust="spacing" textLength="39.8057" x="30.8356" y="125.5352">Audio</text></g><!--entity Server--><g class="entity" data-entity="Server" data-source-line="9" data-uid="ent0003" id="entity_Server"><polygon fill="#B388F5" points="146.6456,107,156.6456,97,228.4884,97,228.4884,133.4883,218.4884,143.4883,146.6456,143.4883,146.6456,107" style="stroke:#181818;stroke-width:0.5;"/><line style="stroke:#181818;stroke-width:0.5;" x1="218.4884" x2="228.4884" y1="107" y2="97"/><line style="stroke:#181818;stroke-width:0.5;" x1="146.6456" x2="218.4884" y1="107" y2="107"/><line style="stroke:#181818;stroke-width:0.5;" x1="218.4884" x2="218.4884" y1="107" y2="143.4883"/><text fill="#000000" font-family="sans-serif" font-size="14" lengthAdjust="spacing" textLength="41.8428" x="161.6456" y="130.5352">Server</text></g><!--entity Gateway--><g class="entity" data-entity="Gateway" data-source-line="10" data-uid="ent0004" id="entity_Gateway"><polygon fill="#B388F5" points="330.4856,107,340.4856,97,427.2034,97,427.2034,133.4883,417.2034,143.4883,330.4856,143.4883,330.4856,107" style="stroke:#181818;stroke-width:0.5;"/><line style="stroke:#181818;stroke-width:0.5;" x1="417.2034" x2="427.2034" y1="107" y2="97"/><line style="stroke:#181818;stroke-width:0.5;" x1="330.4856" x2="417.2034" y1="107" y2="107"/><line style="stroke:#181818;stroke-width:0.5;" x1="417.2034" x2="417.2034" y1="107" y2="143.4883"/><text fill="#000000" font-family="sans-serif" font-size="14" lengthAdjust="spacing" textLength="56.7178" x="345.4856" y="130.5352">Gateway</text></g><!--entity Client1--><g class="entity" data-entity="Client1" data-source-line="11" data-uid="ent0005" id="entity_Client1"><polygon fill="#B388F5" points="488.2056,26,498.2056,16,580.9927,16,580.9927,52.4883,570.9927,62.4883,488.2056,62.4883,488.2056,26" style="stroke:#181818;stroke-width:0.5;"/><line style="stroke:#181818;stroke-width:0.5;" x1="570.9927" x2="580.9927" y1="26" y2="16"/><line style="stroke:#181818;stroke-width:0.5;" x1="488.2056" x2="570.9927" y1="26" y2="26"/><line style="stroke:#181818;stroke-width:0.5;" x1="570.9927" x2="570.9927" y1="26" y2="62.4883"/><text fill="#000000" font-family="sans-serif" font-size="14" lengthAdjust="spacing" textLength="52.7871" x="503.2056" y="49.5352">Client 1</text></g><!--entity Client2--><g class="entity" data-entity="Client2" data-source-line="12" data-uid="ent0006" id="entity_Client2"><polygon fill="#B388F5" points="488.2056,107,498.2056,97,580.9927,97,580.9927,133.4883,570.9927,143.4883,488.2056,143.4883,488.2056,107" style="stroke:#181818;stroke-width:0.5;"/><line style="stroke:#181818;stroke-width:0.5;" x1="570.9927" x2="580.9927" y1="107" y2="97"/><line style="stroke:#181818;stroke-width:0.5;" x1="488.2056" x2="570.9927" y1="107" y2="107"/><line style="stroke:#181818;stroke-width:0.5;" x1="570.9927" x2="570.9927" y1="107" y2="143.4883"/><text fill="#000000" font-family="sans-serif" font-size="14" lengthAdjust="spacing" textLength="52.7871" x="503.2056" y="130.5352">Client 2</text></g><!--entity Client3--><g class="entity" data-entity="Client3" data-source-line="13" data-uid="ent0007" id="entity_Client3"><polygon fill="#B388F5" points="488.2056,188,498.2056,178,580.9927,178,580.9927,214.4883,570.9927,224.4883,488.2056,224.4883,488.2056,188" style="stroke:#181818;stroke-width:0.5;"/><line style="stroke:#181818;stroke-width:0.5;" x1="570.9927" x2="580.9927" y1="188" y2="178"/><line style="stroke:#181818;stroke-width:0.5;" x1="488.2056" x2="570.9927" y1="188" y2="188"/><line style="stroke:#181818;stroke-width:0.5;" x1="570.9927" x2="570.9927" y1="188" y2="224.4883"/><text fill="#000000" font-family="sans-serif" font-size="14" lengthAdjust="spacing" textLength="52.7871" x="503.2056" y="211.5352">Client 3</text></g><!--entity Client1Leds--><g class="entity" data-entity="Client1Leds" data-source-line="14" data-uid="ent0008" id="entity_Client1Leds"><polygon fill="#B388F5" points="641.9856,26,651.9856,16,714.6614,16,714.6614,52.4883,704.6614,62.4883,641.9856,62.4883,641.9856,26" style="stroke:#181818;stroke-width:0.5;"/><line style="stroke:#181818;stroke-width:0.5;" x1="704.6614" x2="714.6614" y1="26" y2="16"/><line style="stroke:#181818;stroke-width:0.5;" x1="641.9856" x2="704.6614" y1="26" y2="26"/><line style="stroke:#181818;stroke-width:0.5;" x1="704.6614" x2="704.6614" y1="26" y2="62.4883"/><text fill="#000000" font-family="sans-serif" font-size="14" lengthAdjust="spacing" textLength="32.6758" x="656.9856" y="49.5352">LEDs</text></g><!--entity Client2Leds--><g class="entity" data-entity="Client2Leds" data-source-line="15" data-uid="ent0009" id="entity_Client2Leds"><polygon fill="#B388F5" points="641.9856,107,651.9856,97,714.6614,97,714.6614,133.4883,704.6614,143.4883,641.9856,143.4883,641.9856,107" style="stroke:#181818;stroke-width:0.5;"/><line style="stroke:#181818;stroke-width:0.5;" x1="704.6614" x2="714.6614" y1="107" y2="97"/><line style="stroke:#181818;stroke-width:0.5;" x1="641.9856" x2="704.6614" y1="107" y2="107"/><line style="stroke:#181818;stroke-width:0.5;" x1="704.6614" x2="704.6614" y1="107" y2="143.4883"/><text fill="#000000" font-family="sans-serif" font-size="14" lengthAdjust="spacing" textLength="32.6758" x="656.9856" y="130.5352">LEDs</text></g><!--entity Client3Leds--><g class="entity" data-entity="Client3Leds" data-source-line="16" data-uid="ent0010" id="entity_Client3Leds"><polygon fill="#B388F5" points="641.9856,188,651.9856,178,714.6614,178,714.6614,214.4883,704.6614,224.4883,641.9856,224.4883,641.9856,188" style="stroke:#181818;stroke-width:0.5;"/><line style="stroke:#181818;stroke-width:0.5;" x1="704.6614" x2="714.6614" y1="188" y2="178"/><line style="stroke:#181818;stroke-width:0.5;" x1="641.9856" x2="704.6614" y1="188" y2="188"/><line style="stroke:#181818;stroke-width:0.5;" x1="704.6614" x2="704.6614" y1="188" y2="224.4883"/><text fill="#000000" font-family="sans-serif" font-size="14" lengthAdjust="spacing" textLength="32.6758" x="656.9856" y="211.5352">LEDs</text></g><!--link Audio to Server--><g class="link" data-entity-1="Audio" data-entity-2="Server" data-source-line="19" data-uid="lnk11" id="link_Audio_Server"><path d="M86.1056,120.25 C104.5256,120.25 121.3056,120.25 140.5156,120.25" fill="none" id="Audio-to-Server" style="stroke:#63D7C6;stroke-width:1;"/><polygon fill="#63D7C6" points="146.5156,120.25,137.5156,116.25,141.5156,120.25,137.5156,124.25,146.5156,120.25" style="stroke:#63D7C6;stroke-width:1;"/></g><!--link Server to Gateway--><g class="link" data-entity-1="Server" data-entity-2="Gateway" data-source-line="20" data-uid="lnk12" id="link_Server_Gateway"><path d="M228.7056,120.25 C258.3256,120.25 292.7656,120.25 324.0556,120.25" fill="none" id="Server-to-Gateway" style="stroke:#63D7C6;stroke-width:1;"/><polygon fill="#63D7C6" points="330.0556,120.25,321.0556,116.25,325.0556,120.25,321.0556,124.25,330.0556,120.25" style="stroke:#63D7C6;stroke-width:1;"/><text fill="#DEDEDE" font-family="sans-serif" font-size="13" lengthAdjust="spacing" textLength="40.6694" x="259.4856" y="116.8184">Colors</text></g><!--link Gateway to Client1--><g class="link" data-entity-1="Gateway" data-entity-2="Client1" data-source-line="21" data-uid="lnk13" id="link_Gateway_Client1"><path d="M424.7256,96.6 C444.8456,86 463.2167,76.3156 483.3467,65.7156" fill="none" id="Gateway-to-Client1" style="stroke:#63D7C6;stroke-width:1;stroke-dasharray:1,3;"/><polygon fill="#63D7C6" points="488.6556,62.92,478.8285,63.5741,484.2315,65.2496,482.5559,70.6526,488.6556,62.92" style="stroke:#63D7C6;stroke-width:1;"/></g><!--link Gateway to Client2--><g class="link" data-entity-1="Gateway" data-entity-2="Client2" data-source-line="22" data-uid="lnk14" id="link_Gateway_Client2"><path d="M427.6456,120.25 C446.8656,120.25 462.9256,120.25 481.9256,120.25" fill="none" id="Gateway-to-Client2" style="stroke:#63D7C6;stroke-width:1;stroke-dasharray:1,3;"/><polygon fill="#63D7C6" points="487.9256,120.25,478.9256,116.25,482.9256,120.25,478.9256,124.25,487.9256,120.25" style="stroke:#63D7C6;stroke-width:1;"/></g><!--link Gateway to Client3--><g class="link" data-entity-1="Gateway" data-entity-2="Client3" data-source-line="23" data-uid="lnk15" id="link_Gateway_Client3"><path d="M424.7256,143.89 C444.8456,154.49 463.2167,164.1744 483.3467,174.7744" fill="none" id="Gateway-to-Client3" style="stroke:#63D7C6;stroke-width:1;stroke-dasharray:1,3;"/><polygon fill="#63D7C6" points="488.6556,177.57,482.5559,169.8374,484.2315,175.2404,478.8285,176.9159,488.6556,177.57" style="stroke:#63D7C6;stroke-width:1;"/></g><!--link Client1 to Client1Leds--><g class="link" data-entity-1="Client1" data-entity-2="Client1Leds" data-source-line="24" data-uid="lnk16" id="link_Client1_Client1Leds"><path d="M581.2156,39.25 C600.8056,39.25 617.3456,39.25 635.6756,39.25" fill="none" id="Client1-to-Client1Leds" style="stroke:#63D7C6;stroke-width:1;"/><polygon fill="#63D7C6" points="641.6756,39.25,632.6756,35.25,636.6756,39.25,632.6756,43.25,641.6756,39.25" style="stroke:#63D7C6;stroke-width:1;"/></g><!--link Client2 to Client2Leds--><g class="link" data-entity-1="Client2" data-entity-2="Client2Leds" data-source-line="25" data-uid="lnk17" id="link_Client2_Client2Leds"><path d="M581.2156,120.25 C600.8056,120.25 617.3456,120.25 635.6756,120.25" fill="none" id="Client2-to-Client2Leds" style="stroke:#63D7C6;stroke-width:1;"/><polygon fill="#63D7C6" points="641.6756,120.25,632.6756,116.25,636.6756,120.25,632.6756,124.25,641.6756,120.25" style="stroke:#63D7C6;stroke-width:1;"/></g><!--link Client3 to Client3Leds--><g class="link" data-entity-1="Client3" data-entity-2="Client3Leds" data-source-line="26" data-uid="lnk18" id="link_Client3_Client3Leds"><path d="M581.2156,201.25 C600.8056,201.25 617.3456,201.25 635.6756,201.25" fill="none" id="Client3-to-Client3Leds" style="stroke:#63D7C6;stroke-width:1;"/><polygon fill="#63D7C6" points="641.6756,201.25,632.6756,197.25,636.6756,201.25,632.6756,205.25,641.6756,201.25" style="stroke:#63D7C6;stroke-width:1;"/></g><!--SRC=[VP0nZy8m38Lt_mh3mjIXpNO3qeb3B6oCw8QgCTT88QvYSoV-FI6b8aKwfhoyxydoyq9xEXFADP0agQu3M257Hq5RTHp0qqbH6QFxwHMjYzHbFyKwFWySKbAWyton-7cnZY6m9JnG_AKuwbshzDTUny_6tsVNs0ekHutriaHDYPePCYKoCrJloKh6- -sNp0V-ZymBIgKY-LnSUZS8v4POLUkfqFXavr4BFt33dgF0P5H7owfalrFeiTqRrhnX1gPpLSzPzvrXkjNJRmhV57xk23S0]--></g></svg>